<svg width="19" height="19" viewBox="0 0 19 19" fill="none" xmlns="http://www.w3.org/2000/svg">
<path d="M14.0514 1.41943L15.7167 3.0847C15.7888 3.15936 15.8287 3.25935 15.8278 3.36313C15.8269 3.46692 15.7853 3.5662 15.7119 3.63959C15.6385 3.71298 15.5392 3.75461 15.4354 3.75551C15.3316 3.75641 15.2316 3.71652 15.157 3.64441L14.4473 2.93468V17.4166H13.6556V2.93468L12.9459 3.64441C12.9094 3.68222 12.8657 3.71237 12.8174 3.73312C12.7691 3.75386 12.7171 3.76478 12.6646 3.76524C12.612 3.7657 12.5599 3.75568 12.5113 3.73578C12.4626 3.71588 12.4184 3.68648 12.3813 3.64932C12.3441 3.61215 12.3147 3.56796 12.2948 3.51931C12.2749 3.47066 12.2649 3.41854 12.2653 3.36598C12.2658 3.31342 12.2767 3.26148 12.2975 3.21319C12.3182 3.1649 12.3484 3.12122 12.3862 3.0847L14.0514 1.41943ZM11.0827 3.16664C11.0827 3.58657 10.9159 3.9893 10.6189 4.28623C10.322 4.58316 9.91928 4.74997 9.49935 4.74997C9.07942 4.74997 8.6767 4.58316 8.37976 4.28623C8.08283 3.9893 7.91602 3.58657 7.91602 3.16664C7.91602 2.74672 8.08283 2.34399 8.37976 2.04706C8.6767 1.75012 9.07942 1.58331 9.49935 1.58331C9.91928 1.58331 10.322 1.75012 10.6189 2.04706C10.9159 2.34399 11.0827 2.74672 11.0827 3.16664Z" fill="#7AA476"/>
<path d="M11.8746 11.4C12.0004 11.339 12.1078 11.2459 12.186 11.13C12.2641 11.0141 12.3102 10.8796 12.3195 10.7401L12.5986 6.55495C12.633 6.04037 12.1742 5.62949 11.6648 5.70787C10.9602 5.81593 10.0478 5.93745 9.4996 5.93745C8.95137 5.93745 8.03897 5.81593 7.33439 5.70787C6.82455 5.62949 6.36618 6.04037 6.40022 6.55495L6.67928 10.7401C6.68856 10.8797 6.73465 11.0143 6.81287 11.1303C6.8911 11.2463 6.99865 11.3395 7.1246 11.4003V16.625C7.12478 16.8295 7.20416 17.0261 7.3461 17.1735C7.48804 17.3208 7.68151 17.4075 7.88596 17.4153C8.0904 17.4232 8.28994 17.3515 8.44273 17.2155C8.59553 17.0794 8.68972 16.8895 8.70555 16.6855L9.10139 11.5397C9.10295 11.5195 9.10374 11.4993 9.10376 11.4791H9.89543C9.89543 11.4992 9.89622 11.5194 9.8978 11.5397L10.2936 16.6855C10.3095 16.8895 10.4037 17.0794 10.5565 17.2155C10.7093 17.3515 10.9088 17.4232 11.1132 17.4153C11.3177 17.4075 11.5112 17.3208 11.6531 17.1735C11.795 17.0261 11.8744 16.8295 11.8746 16.625V11.4Z" fill="#7AA476"/>
</svg>
