<svg width="25" height="25" viewBox="0 0 25 25" fill="none" xmlns="http://www.w3.org/2000/svg">
<path d="M13.7792 2.79979C13.4135 2.5153 12.9633 2.36084 12.5 2.36084C12.0367 2.36084 11.5865 2.5153 11.2208 2.79979L2.4875 9.59145C1.70417 10.2029 2.13542 11.4581 3.12813 11.4581H4.16667V19.7915C4.16667 20.344 4.38616 20.8739 4.77686 21.2646C5.16756 21.6553 5.69747 21.8748 6.25 21.8748H10.4167V15.6248C10.4167 15.0723 10.6362 14.5423 11.0269 14.1516C11.4176 13.7609 11.9475 13.5415 12.5 13.5415C13.0525 13.5415 13.5824 13.7609 13.9731 14.1516C14.3638 14.5423 14.5833 15.0723 14.5833 15.6248V21.8748H18.75C19.3025 21.8748 19.8324 21.6553 20.2231 21.2646C20.6138 20.8739 20.8333 20.344 20.8333 19.7915V11.4581H21.8719C22.8635 11.4581 23.2969 10.2029 22.5125 9.59249L13.7792 2.79979Z" fill="#5C8858"/>
</svg>
