<svg width="24" height="24" viewBox="0 0 24 24" fill="none" xmlns="http://www.w3.org/2000/svg">
<path d="M13.5 7.125C13.5 5.63316 14.0926 4.20242 15.1475 3.14752C16.2024 2.09263 17.6332 1.5 19.125 1.5H19.5C19.6989 1.5 19.8897 1.57902 20.0303 1.71967C20.171 1.86032 20.25 2.05109 20.25 2.25V11.25C20.25 11.3685 20.28 11.751 20.3385 12.3495C20.394 12.927 20.4698 13.6568 20.5508 14.4345L20.5605 14.5267C20.763 16.4752 21 18.7612 21 19.5C21 20.2956 20.6839 21.0587 20.1213 21.6213C19.5587 22.1839 18.7957 22.5 18 22.5C17.2044 22.5 16.4413 22.1839 15.8787 21.6213C15.3161 21.0587 15 20.2956 15 19.5C15 18.8715 15.1703 16.9747 15.3435 15.1965C15.4628 13.9702 15.5865 12.7665 15.6668 12H15.375C14.8777 12 14.4008 11.8025 14.0492 11.4508C13.6975 11.0992 13.5 10.6223 13.5 10.125V7.125ZM11.2305 2.07975C11.1903 1.90721 11.0902 1.75448 10.9481 1.64864C10.8061 1.54279 10.6311 1.49067 10.4543 1.5015C10.0568 1.524 9.7425 1.85175 9.7425 2.2545V6.7545C9.74548 6.95242 9.66972 7.14341 9.53189 7.28547C9.39405 7.42753 9.20542 7.50902 9.0075 7.512C8.80958 7.51498 8.61859 7.43922 8.47653 7.30138C8.33447 7.16354 8.25299 6.97492 8.25 6.777V2.25C8.25 2.05109 8.17098 1.86032 8.03033 1.71967C7.88968 1.57902 7.69891 1.5 7.5 1.5C7.30109 1.5 7.11032 1.57902 6.96967 1.71967C6.82902 1.86032 6.75 2.05109 6.75 2.25V6.79875C6.73774 6.99199 6.65085 7.17291 6.50769 7.30328C6.36452 7.43365 6.17628 7.50326 5.98274 7.49742C5.78919 7.49158 5.6055 7.41074 5.47045 7.27197C5.3354 7.13321 5.25958 6.94738 5.259 6.75375V2.25525C5.25849 2.07055 5.19031 1.89243 5.06736 1.7546C4.9444 1.61677 4.7752 1.52876 4.59176 1.50724C4.40831 1.48572 4.22334 1.53217 4.07182 1.6378C3.92031 1.74344 3.81275 1.90093 3.7695 2.0805C3.753 2.1495 3 5.355 3 7.5C2.99942 8.17794 3.15228 8.84722 3.44712 9.45769C3.74196 10.0682 4.17114 10.604 4.7025 11.025C5.0745 11.3205 5.25 11.6423 5.25 11.9115C5.24988 11.9401 5.24813 11.9686 5.24475 11.997C5.19975 12.375 5.0145 13.9425 4.8405 15.5618C4.6695 17.154 4.5 18.87 4.5 19.5C4.5 20.2956 4.81607 21.0587 5.37868 21.6213C5.94129 22.1839 6.70435 22.5 7.5 22.5C8.29565 22.5 9.05871 22.1839 9.62132 21.6213C10.1839 21.0587 10.5 20.2956 10.5 19.5C10.5 18.8708 10.3305 17.154 10.1595 15.5618C9.9855 13.9425 9.7995 12.3743 9.7545 11.997C9.75137 11.9686 9.74987 11.9401 9.75 11.9115C9.75 11.6423 9.9255 11.3205 10.2975 11.025C10.8289 10.604 11.258 10.0682 11.5529 9.45769C11.8477 8.84722 12.0006 8.17794 12 7.5C12 5.3535 11.2448 2.142 11.2305 2.07975ZM10.4205 1.50375L10.4355 1.503H10.4295L10.4235 1.50375H10.4205Z" fill="white"/>
</svg>
