<svg width="24" height="24" viewBox="0 0 24 24" fill="none" xmlns="http://www.w3.org/2000/svg">
<path d="M9.5 6.49512C9.5 6.2299 9.60536 5.97555 9.79289 5.78801C9.98043 5.60047 10.2348 5.49512 10.5 5.49512H16.5C16.7652 5.49512 17.0196 5.60047 17.2071 5.78801C17.3946 5.97555 17.5 6.2299 17.5 6.49512C17.5 6.76033 17.3946 7.01469 17.2071 7.20222C17.0196 7.38976 16.7652 7.49512 16.5 7.49512H10.5C10.2348 7.49512 9.98043 7.38976 9.79289 7.20222C9.60536 7.01469 9.5 6.76033 9.5 6.49512ZM14.137 8.49512H16.363C16.421 8.49512 16.502 8.49512 16.575 8.50112C16.663 8.50812 16.804 8.52812 16.954 8.60412C17.1422 8.69999 17.2951 8.85296 17.391 9.04112C17.468 9.19112 17.487 9.33112 17.494 9.42012C17.5 9.49312 17.5 9.57412 17.5 9.63212V11.3581C17.5 11.4161 17.5 11.4971 17.494 11.5701C17.4851 11.702 17.45 11.8308 17.391 11.9491C17.2951 12.1373 17.1422 12.2902 16.954 12.3861C16.8357 12.4452 16.7069 12.4802 16.575 12.4891C16.5044 12.4936 16.4337 12.4956 16.363 12.4951H14.137C14.079 12.4951 13.998 12.4951 13.925 12.4891C13.7931 12.4802 13.6643 12.4452 13.546 12.3861C13.3578 12.2902 13.2049 12.1373 13.109 11.9491C13.05 11.8308 13.0149 11.702 13.006 11.5701C13 11.4971 13 11.4161 13 11.3581V9.63212C13 9.57412 13 9.49312 13.006 9.42012C13.013 9.33212 13.033 9.19112 13.109 9.04112C13.2049 8.85296 13.3578 8.69999 13.546 8.60412C13.696 8.52812 13.836 8.50812 13.925 8.50112C13.998 8.49512 14.079 8.49512 14.137 8.49512ZM14.5 9.99512V10.9951H16V9.99512H14.5ZM10.25 8.74512C10.0511 8.74512 9.86032 8.82414 9.71967 8.96479C9.57902 9.10544 9.5 9.2962 9.5 9.49512C9.5 9.69403 9.57902 9.8848 9.71967 10.0254C9.86032 10.1661 10.0511 10.2451 10.25 10.2451H11.5C11.6989 10.2451 11.8897 10.1661 12.0303 10.0254C12.171 9.8848 12.25 9.69403 12.25 9.49512C12.25 9.2962 12.171 9.10544 12.0303 8.96479C11.8897 8.82414 11.6989 8.74512 11.5 8.74512H10.25ZM10.25 10.9951C10.0511 10.9951 9.86032 11.0741 9.71967 11.2148C9.57902 11.3554 9.5 11.5462 9.5 11.7451C9.5 11.944 9.57902 12.1348 9.71967 12.2754C9.86032 12.4161 10.0511 12.4951 10.25 12.4951H11.5C11.6989 12.4951 11.8897 12.4161 12.0303 12.2754C12.171 12.1348 12.25 11.944 12.25 11.7451C12.25 11.5462 12.171 11.3554 12.0303 11.2148C11.8897 11.0741 11.6989 10.9951 11.5 10.9951H10.25ZM10.25 13.7451C10.0511 13.7451 9.86032 13.8241 9.71967 13.9648C9.57902 14.1054 9.5 14.2962 9.5 14.4951C9.5 14.694 9.57902 14.8848 9.71967 15.0254C9.86032 15.1661 10.0511 15.2451 10.25 15.2451H16.75C16.9489 15.2451 17.1397 15.1661 17.2803 15.0254C17.421 14.8848 17.5 14.694 17.5 14.4951C17.5 14.2962 17.421 14.1054 17.2803 13.9648C17.1397 13.8241 16.9489 13.7451 16.75 13.7451H10.25Z" fill="#5C8858"/>
<path d="M16.33 2.74512H10.67C10.135 2.74512 9.69 2.74512 9.325 2.77512C8.945 2.80512 8.589 2.87312 8.252 3.04512C7.73445 3.30879 7.31367 3.72956 7.05 4.24712C6.878 4.58412 6.81 4.94012 6.78 5.32012C6.75 5.68512 6.75 6.13012 6.75 6.66512V16.7451H4.5C4.30109 16.7451 4.11032 16.8241 3.96967 16.9648C3.82902 17.1054 3.75 17.2962 3.75 17.4951C3.75 19.1781 4.322 20.1751 5.05 20.7201C5.456 21.0241 5.984 21.2441 6.499 21.2451H16.648C17.355 21.2451 18.1 21.2751 18.748 20.9451C19.2654 20.6817 19.6862 20.2613 19.95 19.7441C20.122 19.4061 20.19 19.0501 20.22 18.6701C20.25 18.3051 20.25 17.8601 20.25 17.3251V6.66512C20.25 6.13012 20.25 5.68512 20.22 5.32012C20.19 4.94012 20.122 4.58412 19.95 4.24712C19.6866 3.72972 19.2662 3.30896 18.749 3.04512C18.411 2.87312 18.055 2.80512 17.675 2.77512C17.31 2.74512 16.865 2.74512 16.33 2.74512ZM17.422 19.7321C17.2511 19.6966 17.09 19.6243 16.95 19.5201C16.678 19.3161 16.25 18.8121 16.25 17.4951C16.25 17.2962 16.171 17.1054 16.0303 16.9648C15.8897 16.8241 15.6989 16.7451 15.5 16.7451H8.25V6.69512C8.25 6.12312 8.25 5.73812 8.275 5.44212C8.298 5.15512 8.34 5.01812 8.386 4.92812C8.50591 4.69253 8.69741 4.50103 8.933 4.38112C9.023 4.33512 9.16 4.29312 9.447 4.27012C9.743 4.24612 10.127 4.24512 10.7 4.24512H16.3C16.872 4.24512 17.257 4.24512 17.552 4.27012C17.84 4.29312 17.977 4.33512 18.067 4.38112C18.303 4.50112 18.494 4.69212 18.614 4.92812C18.66 5.01812 18.702 5.15512 18.725 5.44212C18.749 5.73812 18.75 6.12212 18.75 6.69512V17.2951C18.75 17.8671 18.75 18.2521 18.725 18.5471C18.702 18.8351 18.66 18.9721 18.614 19.0621C18.4941 19.2977 18.3026 19.4892 18.067 19.6091C17.925 19.6811 17.771 19.7161 17.422 19.7321ZM6.512 19.7451H6.502L6.494 19.7431C6.29698 19.715 6.11004 19.6384 5.95 19.5201C5.737 19.3601 5.429 19.0171 5.305 18.2451H14.792C14.862 18.8491 15.017 19.3431 15.229 19.7451H6.512Z" fill="#5C8858"/>
</svg>
