<svg width="15" height="15" viewBox="0 0 15 15" fill="none" xmlns="http://www.w3.org/2000/svg">
<mask id="mask0_1_3823" style="mask-type:luminance" maskUnits="userSpaceOnUse" x="0" y="0" width="15" height="15">
<path d="M12.8125 1.25H2.1875C1.93886 1.25 1.7004 1.34877 1.52459 1.52459C1.34877 1.7004 1.25 1.93886 1.25 2.1875V12.8125C1.25 13.0611 1.34877 13.2996 1.52459 13.4754C1.7004 13.6512 1.93886 13.75 2.1875 13.75H12.8125C13.0611 13.75 13.2996 13.6512 13.4754 13.4754C13.6512 13.2996 13.75 13.0611 13.75 12.8125V2.1875C13.75 1.93886 13.6512 1.7004 13.4754 1.52459C13.2996 1.34877 13.0611 1.25 12.8125 1.25Z" fill="white" stroke="white" stroke-width="2" stroke-linejoin="round"/>
<path d="M3.75 5.95435C4.78896 4.70435 6.03896 4.07935 7.5 4.07935C8.96083 4.07935 10.2108 4.70435 11.25 5.95435" stroke="black" stroke-width="2" stroke-linecap="round"/>
<path d="M7.5 9.6875C7.74864 9.6875 7.9871 9.58873 8.16291 9.41291C8.33873 9.2371 8.4375 8.99864 8.4375 8.75C8.4375 8.50136 8.33873 8.2629 8.16291 8.08709C7.9871 7.91127 7.74864 7.8125 7.5 7.8125C7.25136 7.8125 7.0129 7.91127 6.83709 8.08709C6.66127 8.2629 6.5625 8.50136 6.5625 8.75C6.5625 8.99864 6.66127 9.2371 6.83709 9.41291C7.0129 9.58873 7.25136 9.6875 7.5 9.6875Z" fill="black"/>
<path d="M5.9375 6.5625L7.5025 8.75" stroke="black" stroke-width="2" stroke-linecap="round"/>
</mask>
<g mask="url(#mask0_1_3823)">
<path d="M0 0H15V15H0V0Z" fill="#7AA476"/>
</g>
</svg>
