<svg width="25" height="25" viewBox="0 0 25 25" fill="none" xmlns="http://www.w3.org/2000/svg">
<path d="M13.7789 2.80003C13.4132 2.51554 12.9631 2.36108 12.4998 2.36108C12.0364 2.36108 11.5863 2.51554 11.2206 2.80003L2.48728 9.5917C1.70395 10.2032 2.1352 11.4584 3.12791 11.4584H4.16645V19.7917C4.16645 20.3442 4.38594 20.8741 4.77664 21.2648C5.16734 21.6555 5.69725 21.875 6.24978 21.875H10.4165V15.625C10.4165 15.0725 10.6359 14.5426 11.0266 14.1519C11.4173 13.7612 11.9472 13.5417 12.4998 13.5417C13.0523 13.5417 13.5822 13.7612 13.9729 14.1519C14.3636 14.5426 14.5831 15.0725 14.5831 15.625V21.875H18.7498C19.3023 21.875 19.8322 21.6555 20.2229 21.2648C20.6136 20.8741 20.8331 20.3442 20.8331 19.7917V11.4584H21.8717C22.8633 11.4584 23.2967 10.2032 22.5123 9.59274L13.7789 2.80003Z" fill="white"/>
</svg>
