<svg width="24" height="24" viewBox="0 0 24 24" fill="none" xmlns="http://www.w3.org/2000/svg">
<path d="M2 10.1C2.43333 7.76667 3.56267 5.83333 5.388 4.3C7.21333 2.76667 9.359 2 11.825 2C13.0583 2 14.221 2.2 15.313 2.6C16.405 3 17.384 3.56667 18.25 4.3C18.0167 4.73333 17.8293 5.10433 17.688 5.413C17.5467 5.72167 17.4507 6.009 17.4 6.275C16.6667 5.575 15.825 5.021 14.875 4.613C13.925 4.205 12.9083 4.00067 11.825 4C10.1417 4 8.63333 4.471 7.3 5.413C5.96667 6.355 5 7.559 4.4 9.025C3.95 9.00833 3.51267 9.09167 3.088 9.275C2.66333 9.45833 2.30067 9.73333 2 10.1ZM11.825 22C9.35833 22 7.21267 21.2333 5.388 19.7C3.56333 18.1667 2.434 16.2333 2 13.9C2.28333 14.2667 2.63767 14.546 3.063 14.738C3.48833 14.93 3.934 15.0173 4.4 15C5 16.4667 5.96667 17.6667 7.3 18.6C8.63333 19.5333 10.1417 20 11.825 20C14.0417 20 15.9293 19.221 17.488 17.663C19.0467 16.105 19.8257 14.2173 19.825 12C19.825 11.7167 19.8123 11.4333 19.787 11.15C19.7617 10.8667 19.716 10.5833 19.65 10.3C19.8333 10.3667 20.021 10.4167 20.213 10.45C20.405 10.4833 20.609 10.5 20.825 10.5C20.975 10.5 21.125 10.4917 21.275 10.475C21.425 10.4583 21.5667 10.4333 21.7 10.4C21.7333 10.6667 21.7627 10.9293 21.788 11.188C21.8133 11.4467 21.8257 11.7173 21.825 12C21.825 13.3833 21.5623 14.6833 21.037 15.9C20.5117 17.1167 19.7993 18.175 18.9 19.075C18.0007 19.975 16.9423 20.6877 15.725 21.213C14.5077 21.7383 13.2077 22.0007 11.825 22ZM8.225 11.6L10.325 9.5L8.2 7.375L7.15 8.425L8.225 9.475L7.15 10.55L8.225 11.6ZM20.825 9C20.275 9 19.8043 8.80433 19.413 8.413C19.0217 8.02167 18.8257 7.55067 18.825 7C18.825 6.55 18.95 6.071 19.2 5.563C19.45 5.055 19.9917 4.20067 20.825 3C21.6583 4.2 22.2 5.05433 22.45 5.563C22.7 6.07167 22.825 6.55067 22.825 7C22.825 7.55 22.6293 8.021 22.238 8.413C21.8467 8.805 21.3757 9.00067 20.825 9ZM15.45 11.625L16.525 10.55L15.45 9.475L16.5 8.425L15.45 7.375L13.325 9.5L15.45 11.625ZM11.825 13.5C11.3917 13.5 10.9707 13.55 10.562 13.65C10.1533 13.75 9.766 13.8917 9.4 14.075L5.825 12C5.825 11.7333 5.75833 11.4833 5.625 11.25C5.49167 11.0167 5.30833 10.8333 5.075 10.7C4.70833 10.5 4.32933 10.4543 3.938 10.563C3.54667 10.6717 3.24233 10.9007 3.025 11.25C2.825 11.6167 2.77933 11.996 2.888 12.388C2.99667 12.78 3.22567 13.084 3.575 13.3C3.80833 13.4333 4.05833 13.5 4.325 13.5C4.59167 13.5 4.84167 13.4333 5.075 13.3L8.05 15.025C7.76667 15.3083 7.51233 15.6127 7.287 15.938C7.06167 16.2633 6.87433 16.6173 6.725 17H8.375C8.725 16.4 9.2 15.9167 9.8 15.55C10.4 15.1833 11.075 15 11.825 15C12.575 15 13.25 15.1833 13.85 15.55C14.45 15.9167 14.925 16.4 15.275 17H16.925C16.525 15.9667 15.8707 15.125 14.962 14.475C14.0533 13.825 13.0077 13.5 11.825 13.5Z" fill="black"/>
</svg>
