<svg width="24" height="24" viewBox="0 0 24 24" fill="none" xmlns="http://www.w3.org/2000/svg">
<g clip-path="url(#clip0_1_3775)">
<path d="M7 17.013L11.413 16.998L21.045 7.45803C21.423 7.08003 21.631 6.57803 21.631 6.04403C21.631 5.51003 21.423 5.00802 21.045 4.63002L19.459 3.04402C18.703 2.28802 17.384 2.29202 16.634 3.04102L7 12.583V17.013ZM18.045 4.45802L19.634 6.04102L18.037 7.62303L16.451 6.03803L18.045 4.45802ZM9 13.417L15.03 7.44403L16.616 9.03003L10.587 15.001L9 15.006V13.417Z" fill="#7AA476"/>
<path d="M5 21H19C20.103 21 21 20.103 21 19V10.332L19 12.332V19H8.158C8.132 19 8.105 19.01 8.079 19.01C8.046 19.01 8.013 19.001 7.979 19H5V5H11.847L13.847 3H5C3.897 3 3 3.897 3 5V19C3 20.103 3.897 21 5 21Z" fill="#7AA476"/>
<rect width="27.2727" height="24" fill="white"/>
<path fill-rule="evenodd" clip-rule="evenodd" d="M8.14833 3.99988C7.47651 3.99988 6.83221 4.25273 6.35716 4.70282C5.88211 5.15291 5.61523 5.76336 5.61523 6.39988V17.5999C5.61523 18.2364 5.88211 18.8468 6.35716 19.2969C6.83221 19.747 7.47651 19.9999 8.14833 19.9999H13.2145C13.8864 19.9999 14.5307 19.747 15.0057 19.2969C15.4808 18.8468 15.7476 18.2364 15.7476 17.5999V6.39988C15.7476 5.76336 15.4808 5.15291 15.0057 4.70282C14.5307 4.25273 13.8864 3.99988 13.2145 3.99988H8.14833ZM16.8394 8.23428C16.9977 8.0843 17.2125 8.00005 17.4364 8.00005C17.6603 8.00005 17.875 8.0843 18.0333 8.23428L21.4108 11.4343C21.5691 11.5843 21.658 11.7877 21.658 11.9999C21.658 12.212 21.5691 12.4155 21.4108 12.5655L18.0333 15.7655C17.8741 15.9112 17.6608 15.9918 17.4394 15.99C17.218 15.9882 17.0062 15.9041 16.8497 15.7557C16.6931 15.6074 16.6043 15.4068 16.6024 15.197C16.6005 14.9872 16.6856 14.7852 16.8394 14.6343L18.7755 12.7999H11.5258C11.3019 12.7999 11.0871 12.7156 10.9287 12.5656C10.7704 12.4155 10.6814 12.2121 10.6814 11.9999C10.6814 11.7877 10.7704 11.5842 10.9287 11.4342C11.0871 11.2842 11.3019 11.1999 11.5258 11.1999H18.7755L16.8394 9.36548C16.6811 9.21546 16.5922 9.01201 16.5922 8.79988C16.5922 8.58775 16.6811 8.3843 16.8394 8.23428Z" fill="#EA4335"/>
</g>
<defs>
<clipPath id="clip0_1_3775">
<rect width="24" height="24" fill="white"/>
</clipPath>
</defs>
</svg>
