<svg width="35" height="36" viewBox="0 0 35 36" fill="none" xmlns="http://www.w3.org/2000/svg">
<path d="M17.5646 32.493C15.0331 32.493 12.9673 32.0933 11.3672 31.2937C9.76713 30.4941 8.96709 29.461 8.96709 28.1943C8.96709 27.6212 9.14047 27.09 9.48724 26.6009C9.834 26.1118 10.3169 25.6877 10.9359 25.3285L13.1927 27.442C12.9778 27.5376 12.7447 27.645 12.4935 27.7644C12.2422 27.8839 12.0455 28.0271 11.9031 28.1943C12.2136 28.5764 12.93 28.9108 14.0525 29.1974C15.1749 29.4839 16.3456 29.6272 17.5646 29.6272C18.7835 29.6272 19.9599 29.4839 21.0938 29.1974C22.2277 28.9108 22.9499 28.5764 23.2604 28.1943C23.0932 28.0033 22.8783 27.848 22.6156 27.7286C22.3529 27.6092 22.1021 27.5017 21.8633 27.4062L24.0843 25.2569C24.753 25.639 25.2664 26.075 25.6247 26.5651C25.9829 27.0552 26.162 27.5982 26.162 28.1943C26.162 29.4601 25.362 30.4932 23.7619 31.2937C22.1618 32.0942 20.096 32.494 17.5646 32.493ZM17.5646 28.1943C14.1972 25.7106 11.6839 23.2985 10.0246 20.9581C8.36527 18.6177 7.53513 16.325 7.53418 14.0802C7.53418 12.3845 7.83891 10.8977 8.44838 9.6195C9.05784 8.34135 9.83973 7.27287 10.7941 6.41408C11.7484 5.55529 12.8231 4.91048 14.0181 4.47965C15.2131 4.04882 16.3953 3.83389 17.5646 3.83484C18.7338 3.8358 19.916 4.05073 21.111 4.47965C22.3061 4.90857 23.3807 5.55338 24.3351 6.41408C25.2894 7.27478 26.0717 8.34373 26.6822 9.62093C27.2926 10.8981 27.5968 12.3845 27.5949 14.0802C27.5949 16.325 26.7653 18.6177 25.106 20.9581C23.4466 23.2985 20.9328 25.7106 17.5646 28.1943ZM17.5646 16.731C18.3527 16.731 19.0276 16.4507 19.5893 15.8899C20.151 15.3292 20.4313 14.6543 20.4304 13.8652C20.4294 13.0762 20.149 12.4017 19.5893 11.8419C19.0295 11.2822 18.3546 11.0013 17.5646 10.9994C16.7745 10.9975 16.1001 11.2783 15.5413 11.8419C14.9824 12.4056 14.7016 13.08 14.6987 13.8652C14.6959 14.6505 14.9767 15.3254 15.5413 15.8899C16.1058 16.4545 16.7803 16.7349 17.5646 16.731Z" fill="#7AA476"/>
</svg>
