<svg width="33" height="34" viewBox="0 0 33 34" fill="none" xmlns="http://www.w3.org/2000/svg">
<path fill-rule="evenodd" clip-rule="evenodd" d="M14.2532 3.09985C13.9839 3.09985 13.7256 3.20686 13.5351 3.39732C13.3446 3.58779 13.2376 3.84612 13.2376 4.11548C13.2376 4.38484 13.3446 4.64316 13.5351 4.83363C13.7256 5.02409 13.9839 5.1311 14.2532 5.1311H15.2689V7.20567C12.6246 7.43317 10.1332 8.54187 8.19409 10.3541C6.25499 12.1663 4.98046 14.577 4.57479 17.1999C4.16912 19.8228 4.6558 22.5059 5.95682 24.8193C7.25784 27.1326 9.29786 28.9421 11.7499 29.9579C14.2019 30.9736 16.924 31.1367 19.4797 30.421C22.0355 29.7053 24.277 28.1522 25.8449 26.0108C27.4128 23.8693 28.2163 21.2635 28.1267 18.6109C28.0371 15.9583 27.0595 13.4127 25.3506 11.3819L26.4814 10.2512C26.6665 10.0597 26.7689 9.80322 26.7668 9.53693C26.7646 9.27063 26.6579 9.01585 26.4697 8.82746C26.2814 8.63906 26.0268 8.53213 25.7605 8.52969C25.4942 8.52725 25.2376 8.6295 25.0459 8.81442L23.9139 9.94514C22.0468 8.36809 19.7355 7.41073 17.3001 7.20567V5.1311H18.3157C18.5851 5.1311 18.8434 5.02409 19.0339 4.83363C19.2244 4.64316 19.3314 4.38484 19.3314 4.11548C19.3314 3.84612 19.2244 3.58779 19.0339 3.39732C18.8434 3.20686 18.5851 3.09985 18.3157 3.09985H14.2532ZM12.3913 12.2675C13.575 11.5843 14.9177 11.2247 16.2845 11.2248V19.0113L23.0282 22.9045C22.4306 23.9377 21.6034 24.8196 20.6105 25.4821C19.6177 26.1446 18.4858 26.57 17.3023 26.7253C16.1189 26.8806 14.9156 26.7617 13.7854 26.3778C12.6552 25.9939 11.6284 25.3553 10.7844 24.5113C9.94044 23.6673 9.3018 22.6405 8.9179 21.5104C8.534 20.3802 8.41511 19.1769 8.57042 17.9934C8.72574 16.81 9.15109 15.6781 9.81361 14.6852C10.4761 13.6924 11.3581 12.8652 12.3913 12.2675Z" fill="#7AA476"/>
</svg>
