<svg width="36" height="35" viewBox="0 0 36 35" fill="none" xmlns="http://www.w3.org/2000/svg">
<path fill-rule="evenodd" clip-rule="evenodd" d="M3.81738 17.1754C3.81738 9.32446 10.1814 2.96045 18.0323 2.96045C25.8832 2.96045 32.2472 9.32446 32.2472 17.1754C32.2472 25.0262 25.8832 31.3903 18.0323 31.3903C10.1814 31.3903 3.81738 25.0262 3.81738 17.1754ZM18.0323 11.4894C18.0323 11.1124 17.8826 10.7508 17.616 10.4842C17.3494 10.2177 16.9878 10.0679 16.6108 10.0679C16.2338 10.0679 15.8723 10.2177 15.6057 10.4842C15.3391 10.7508 15.1893 11.1124 15.1893 11.4894V18.5968C15.1893 18.9738 15.3391 19.3354 15.6057 19.602C15.8723 19.8686 16.2338 20.0183 16.6108 20.0183H23.7183C24.0953 20.0183 24.4569 19.8686 24.7234 19.602C24.99 19.3354 25.1398 18.9738 25.1398 18.5968C25.1398 18.2198 24.99 17.8583 24.7234 17.5917C24.4569 17.3251 24.0953 17.1754 23.7183 17.1754H18.0323V11.4894Z" fill="#7AA476"/>
</svg>
