<svg width="19" height="20" viewBox="0 0 19 20" fill="none" xmlns="http://www.w3.org/2000/svg">
<path d="M3.14844 14.7226C3.14844 13.8876 3.48015 13.0868 4.07059 12.4964C4.66103 11.9059 5.46185 11.5742 6.29686 11.5742H12.5937C13.4287 11.5742 14.2295 11.9059 14.82 12.4964C15.4104 13.0868 15.7421 13.8876 15.7421 14.7226C15.7421 15.1402 15.5763 15.5406 15.2811 15.8358C14.9858 16.131 14.5854 16.2969 14.1679 16.2969H4.72265C4.30514 16.2969 3.90474 16.131 3.60951 15.8358C3.31429 15.5406 3.14844 15.1402 3.14844 14.7226Z" stroke="#7AA476" stroke-width="2.5" stroke-linejoin="round"/>
<path d="M9.4453 8.42576C10.7494 8.42576 11.8066 7.36857 11.8066 6.06444C11.8066 4.76032 10.7494 3.70312 9.4453 3.70312C8.14118 3.70312 7.08398 4.76032 7.08398 6.06444C7.08398 7.36857 8.14118 8.42576 9.4453 8.42576Z" stroke="#7AA476" stroke-width="2.5"/>
</svg>
